<svg width="24" height="21" viewBox="0 0 24 21" fill="none" xmlns="http://www.w3.org/2000/svg">
<path d="M21.3036 2.69641C20.766 2.1586 20.1278 1.73197 19.4253 1.44089C18.7228 1.14982 17.9699 1 17.2095 1C16.4491 1 15.6961 1.14982 14.9936 1.44089C14.2912 1.73197 13.6529 2.1586 13.1153 2.69641L11.9997 3.81203L10.8841 2.69641C9.79827 1.61058 8.32556 1.00056 6.78997 1.00056C5.25437 1.00056 3.78167 1.61058 2.69584 2.69641C1.61001 3.78224 1 5.25494 1 6.79053C1 8.32613 1.61001 9.79883 2.69584 10.8847L3.81147 12.0003L11.9997 20.1885L20.188 12.0003L21.3036 10.8847C21.8414 10.3471 22.268 9.70885 22.5591 9.00636C22.8502 8.30388 23 7.55093 23 6.79053C23 6.03013 22.8502 5.27718 22.5591 4.5747C22.268 3.87222 21.8414 3.23396 21.3036 2.69641Z" stroke="white" stroke-linecap="round" stroke-linejoin="round"/>
</svg>
