<svg width="22" height="22" viewBox="0 0 22 22" fill="none" xmlns="http://www.w3.org/2000/svg">
<path d="M5.89359 16.4857L8.19406 18.7861M18.7962 13.9251C17.8195 14.8994 16.5953 15.5885 15.2557 15.9181C13.9161 16.2478 12.5119 16.2054 11.1947 15.7955L6.48371 20.4965C6.14364 20.8466 5.4735 21.0566 4.9934 20.9866L2.81296 20.6865C2.09281 20.5865 1.42267 19.9064 1.31265 19.1862L1.01259 17.0058C0.942576 16.5257 1.17262 15.8555 1.50269 15.5155L6.20365 10.8145C5.40349 8.21397 6.02361 5.26337 8.08404 3.21295C11.0346 0.262349 15.8256 0.262349 18.7862 3.21295C21.7468 6.16356 21.7468 10.9745 18.7962 13.9251Z" stroke="#F3F4E8" stroke-miterlimit="10" stroke-linecap="round" stroke-linejoin="round"/>
<path d="M13.5062 9.99427C13.9041 9.99427 14.2857 9.8362 14.567 9.55484C14.8484 9.27347 15.0065 8.89187 15.0065 8.49396C15.0065 8.09605 14.8484 7.71444 14.567 7.43308C14.2857 7.15172 13.9041 6.99365 13.5062 6.99365C13.1083 6.99365 12.7267 7.15172 12.4453 7.43308C12.1639 7.71444 12.0059 8.09605 12.0059 8.49396C12.0059 8.89187 12.1639 9.27347 12.4453 9.55484C12.7267 9.8362 13.1083 9.99427 13.5062 9.99427Z" stroke="#F3F4E8" stroke-linecap="round" stroke-linejoin="round"/>
</svg>
